<?xml version="1.0" standalone="no"?>
<!DOCTYPE svg PUBLIC "-//W3C//DTD SVG 20010904//EN"
 "http://www.w3.org/TR/2001/REC-SVG-20010904/DTD/svg10.dtd">
<svg version="1.0" xmlns="http://www.w3.org/2000/svg"
 width="421.000000pt" height="304.000000pt" viewBox="0 0 421.000000 304.000000"
 preserveAspectRatio="xMidYMid meet">

<g transform="translate(0.000000,304.000000) scale(0.100000,-0.100000)"
fill="#000000" stroke="none">
<path d="M1042 2499 c-71 -36 -122 -120 -122 -202 0 -63 44 -144 98 -182 l44
-30 1078 0 1078 0 44 30 c55 39 98 119 98 186 0 64 -43 145 -99 184 l-43 30
-1066 3 -1067 2 -43 -21z"/>
<path d="M1100 1829 c-64 -13 -119 -55 -152 -118 -37 -71 -37 -131 0 -202 34
-66 88 -105 161 -119 73 -14 1989 -14 2062 0 73 14 127 53 161 119 37 71 37
131 0 202 -34 66 -88 105 -161 119 -67 13 -2006 12 -2071 -1z"/>
<path d="M1060 1129 c-79 -32 -140 -123 -140 -210 0 -64 42 -142 98 -183 l44
-31 1078 0 1078 0 44 31 c56 41 98 119 98 183 0 67 -43 147 -98 186 l-44 30
-1066 2 c-688 1 -1076 -2 -1092 -8z"/>
</g>
</svg>
